<?xml version="1.0" encoding="utf-8"?>
<!-- Generator: Adobe Illustrator 16.0.0, SVG Export Plug-In . SVG Version: 6.00 Build 0)  -->
<!DOCTYPE svg PUBLIC "-//W3C//DTD SVG 1.1//EN" "http://www.w3.org/Graphics/SVG/1.1/DTD/svg11.dtd">
<svg version="1.1" id="Calque_1" xmlns="http://www.w3.org/2000/svg" xmlns:xlink="http://www.w3.org/1999/xlink" x="0px" y="0px"
	 width="1980px" height="1200px" viewBox="0 0 1980 1200" enable-background="new 0 0 1980 1200" xml:space="preserve">
<g>
	<path fill-rule="evenodd" clip-rule="evenodd" fill="#263333" d="M828.17,905.977c-38.612,0-76.371,0-114.714,0
		c0-165.21,0-330.113,0-495.353c-41.798,0-83.012,0-125.233,0c1.569,1.821,2.552,3.035,3.61,4.179
		c26.08,28.18,40.905,61.688,46.116,99.436c9.442,68.394-19.591,120.294-71.11,161.847c-23.681,19.1-51.15,30.912-80.732,37.822
		c-1.598,0.374-3.181,0.81-5.046,1.286c-0.261,10.587,2.98,20.097,7.751,29.148c9.575,18.164,23.439,32.931,39.215,45.532
		c24.584,19.637,49.913,38.352,75.166,57.135c23.164,17.229,44.734,36.032,59.541,61.192c32.58,55.362,29.89,110.545-3.335,164.368
		c-24.4,39.528-60.374,64.908-103.922,80.202c-54.329,19.078-110.128,28.586-167.734,25.854
		c-59.965-2.843-116.725-17.302-168.467-48.714c-21.368-12.973-40.386-28.74-56.21-48.268
		c-31.873-39.332-35.692-82.301-16.191-127.91c13.764-32.191,37.805-55.67,66.652-74.511c38.239-24.975,80.678-38.94,125.277-47.142
		c38.446-7.07,77.2-6.906,116.031-5.274c2.155,0.091,4.318,0.012,7.216,0.012c-22.466-30.852-34.553-65.046-35.495-103.803
		c-6.335,0-12.428,0.17-18.51-0.026c-56.603-1.82-108.857-16.504-153.111-53.396c-31.667-26.4-53.167-59.421-61.155-100.342
		c-6.127-31.396-1.268-61.846,10.872-90.927c28.069-67.239,79.004-107.883,149.362-124.047
		c57.617-13.236,113.799-5.92,168.549,15.238c3.467,1.34,7.391,2.099,11.104,2.107c57.497,0.13,114.994,0.091,172.491,0.091
		c2.138,0,4.276,0,6.95,0c0.113-2.372,0.248-4.291,0.289-6.211c0.602-28.139,0.334-56.328,1.99-84.403
		c2.345-39.771,9.903-78.578,27.005-114.981c11.249-23.944,27.587-44.343,45.427-63.579c28.796-31.048,62.434-55.04,103.037-68.118
		c34.918-11.246,70.844-15.215,106.145-3.97c44.356,14.129,75.811,42.799,88.359,89.228c4.389,16.236,3.385,32.326-2.366,48.107
		c-6.409,17.587-18.121,30-35.837,36.518c-22.006,8.098-43.672,8.413-64.596-3.298c-14.303-8.005-21.176-20.455-21.557-36.873
		c-0.374-16.08,3.968-30.527,13.214-43.634c6.106-8.655,9.103-18.468,9.792-28.962c1.477-22.502-11.461-36.502-34.292-36.458
		c-43.748,0.084-88.185,20.24-107.734,75.814c-9.847,27.992-13.729,56.93-13.919,86.371c-0.321,49.829-0.091,99.661-0.08,149.492
		c0,1.458,0.156,2.916,0.266,4.856c79.212,0,158.146,0,237.468,0c0,178.242,0,355.974,0,534.19c-37.613,0-75.313,0-113.912,0
		c0-2.363,0-4.78,0-7.196c0-159.325-0.001-318.649-0.001-477.975c0-1.5-0.167-3.022,0.03-4.496c0.596-4.469-0.987-6.009-5.721-5.96
		c-23.33,0.241-46.663,0.109-69.995,0.109c-14,0-27.999,0-41.998,0c-1.803,0-3.607,0-5.952,0
		C828.17,575.655,828.17,740.54,828.17,905.977z M428.905,863.121c-0.01,0.254-0.021,0.509-0.031,0.764
		c-6.498,0-13.001-0.192-19.491,0.032c-29.259,1.013-58.087,4.722-85.677,15.086c-36.562,13.734-63.472,37.381-75.544,75.545
		c-7.715,24.391-8.492,49.4-5.295,74.641c6.917,54.595,36.001,91.089,89.007,106.917c41.237,12.314,83.354,13.336,125.55,5.34
		c27.24-5.161,51.956-16.032,73.257-34.354c42.498-36.553,54.183-114.154,25.322-164.682c-17.879-31.299-43.404-54.934-72.608-75.13
		c-1.269-0.878-3.052-1.306-4.628-1.399C462.15,864.897,445.527,864.024,428.905,863.121z M530.426,542.742
		c0.031-33.384-2.085-61.015-10.205-87.925c-10.627-35.22-32.759-58.942-68.82-68.395c-24.417-6.4-49.114-6.416-73.734-1.137
		c-21.093,4.522-37.938,15.93-50.476,33.387c-9.365,13.04-14.684,27.991-18.092,43.512c-6.504,29.621-7.741,59.724-6.768,89.915
		c0.833,25.871,3.996,51.409,12.679,76.026c11.188,31.719,32.204,52.294,65.885,58.647c17.994,3.395,36.092,3.152,54.242,1.404
		c44.212-4.259,73.594-28.214,86.12-70.802C528.944,591.24,530.232,564.299,530.426,542.742z"/>
	<path fill-rule="evenodd" clip-rule="evenodd" fill="#FF7F00" d="M1071.853,278.399c39.898,6.958,77.799,18.363,114.276,34.471
		c73.439,32.43,135.604,80.134,188.897,139.779c53.268,59.616,94.508,126.655,122.624,201.511
		c7.811,20.794,13.436,42.409,20.072,63.646c0.275,0.882,0.644,1.735,1.281,3.433c45.323-45.916,97.954-79.842,156.753-105.563
		c2.156,4.915,4.123,9.4,6.322,14.415c-7.784,3.674-15.306,7.081-22.704,10.739c-44.793,22.15-85.791,49.777-121.632,84.764
		c-4.996,4.877-11.623,9.498-13.701,15.542c-1.973,5.738,1.291,13.168,1.797,19.888c1.408,18.713,3.509,37.44,3.582,56.168
		c0.073,18.586-2.377,37.128-7.655,55.118c-2.366,8.064-5.66,15.658-11.747,21.715c-8.938,8.895-20.514,10.129-30.852,2.901
		c-12.41-8.676-18.06-21.597-20.628-35.845c-4.681-25.958,1.72-50.162,12.956-73.396c8.016-16.574,18.063-31.873,29.9-45.94
		c3.014-3.582,3.602-6.899,2.591-11.3c-13.489-58.692-36.33-113.622-66.729-165.462c-35.703-60.887-80.099-114.585-134.183-160.05
		c-66.093-55.56-140.966-93.136-226.123-109.366c-1.469-0.28-3.194-0.228-4.325-1.014c-1.315-0.914-3.04-2.647-2.951-3.911
		C1069.948,286.721,1070.997,282.853,1071.853,278.399z M1509.341,758.775c-1.566,1.342-2.143,1.679-2.51,2.172
		c-16.983,22.813-30.482,47.256-33.757,76.063c-1.528,13.446,0.346,26.603,7.443,38.491c2.913,4.88,6.358,10.14,12.824,9.695
		c6.567-0.45,9.542-6.22,10.923-11.605c3.2-12.488,6.835-25.11,7.808-37.867c1.32-17.328,0.612-34.841,0.184-52.26
		C1512.063,775.583,1510.446,767.735,1509.341,758.775z"/>
	<path fill-rule="evenodd" clip-rule="evenodd" fill="#FF7F00" d="M1723.196,573.395c-1.186-36.407,31.371-64.564,64.188-64.483
		c31.457,0.078,64.28,25.993,64.299,64.084c0.019,36.166-28.494,64.664-64.652,64.632
		C1751.453,637.595,1723.214,609.18,1723.196,573.395z"/>
	<path fill-rule="evenodd" clip-rule="evenodd" fill="#263333" d="M1023.696,973.731c-5.43,14.868-10.853,28.987-15.656,43.313
		c-1.468,4.376-4.247,3.616-7.297,3.892c-3.119,0.281-4.604-0.728-5.688-3.86c-8.145-23.56-16.529-47.036-24.823-70.544
		c-0.434-1.229-0.729-2.506-1.072-3.704c0.476-0.295,0.723-0.577,0.983-0.592c12.117-0.664,12.13-0.665,15.909,10.79
		c5.2,15.759,10.381,31.525,15.849,48.138c0.77-1.556,1.303-2.41,1.634-3.338c4.141-11.578,8.07-23.236,12.463-34.719
		c1.659-4.335,1.825-8.203-0.112-12.37c-1.173-2.522-1.926-5.24-3.137-8.62c3.363,0,6.13,0.211,8.851-0.057
		c3.073-0.302,4.326,1.018,5.272,3.821c5.63,16.693,11.444,33.324,17.214,49.97c0.513,1.48,1.149,2.918,2.095,5.299
		c5.635-17.93,10.938-34.816,16.252-51.7c2.318-7.366,2.328-7.361,10.064-7.336c1.479,0.005,2.96,0.001,5.127,0.001
		c-2.526,7.535-4.874,14.575-7.248,21.606c-6.007,17.796-12.131,35.554-17.945,53.412c-1.062,3.263-2.693,4.017-5.742,3.805
		c-3.071-0.214-5.928,0.565-7.357-3.798c-4.448-13.577-9.429-26.98-14.22-40.445
		C1024.841,975.935,1024.417,975.229,1023.696,973.731z"/>
	<path fill-rule="evenodd" clip-rule="evenodd" fill="#263333" d="M1012.973,1051.508c0.938-0.269,1.252-0.422,1.574-0.442
		c10.706-0.659,10.732-0.666,14.217,9.319c5.369,15.382,10.694,30.779,16.052,46.166c0.3,0.861,0.717,1.682,1.397,3.259
		c5.138-16.259,10.019-31.704,14.901-47.148c0.25-0.791,0.53-1.573,0.785-2.363c3.446-10.676,3.454-10.681,15.39-8.73
		c-1.203,3.823-2.318,7.612-3.584,11.35c-7.091,20.944-14.281,41.854-21.261,62.836c-0.976,2.934-2.046,4.514-5.438,4.206
		c-3.242-0.294-6.196,0.506-7.71-4.065c-4.744-14.335-10.08-28.473-15.492-43.537c-3.774,10.293-7.266,19.808-10.754,29.323
		c-1.889,5.15-3.986,10.238-5.581,15.479c-0.988,3.249-3.3,3.001-5.496,2.638c-2.133-0.353-5.525-0.916-6.01-2.245
		c-9.102-24.986-17.854-50.101-26.658-75.195c-0.095-0.27,0.101-0.641,0.198-1.16c4.252,0,8.536,0,13.07,0
		c6.392,19.439,12.744,38.764,19.547,59.455c1.876-5.256,3.297-9.215,4.704-13.18c2.947-8.303,5.692-16.686,8.908-24.883
		c1.791-4.568,2.398-8.771,0.054-13.299C1014.587,1056.972,1013.976,1054.349,1012.973,1051.508z"/>
	<path fill-rule="evenodd" clip-rule="evenodd" fill="#263333" d="M829.463,942.12c3.683,0,7.039-0.342,10.271,0.142
		c1.66,0.248,3.499,1.661,4.579,3.068c13.175,17.18,26.222,34.457,39.315,51.699c0.354,0.465,0.863,0.813,1.838,1.712
		c0-19.085,0-37.462,0-56.229c4.135,0,8.011,0,12.202,0c0,25.713,0,51.434,0,77.271c-6.674,1.213-11.813,0.837-16.407-5.578
		c-12.374-17.279-25.639-33.919-39.125-51.564c-0.152,2.332-0.339,3.88-0.341,5.428c-0.022,15.497-0.204,30.998,0.1,46.489
		c0.092,4.675-1.313,6.337-5.856,5.767c-2.083-0.262-4.226-0.045-6.575-0.045C829.463,994.039,829.463,968.439,829.463,942.12z"/>
	<path fill-rule="evenodd" clip-rule="evenodd" fill="#263333" d="M841.81,1071.072c0,20.04,0,38.63,0,57.714
		c-4.239,0-8.098,0-12.284,0c0-25.704,0-51.429,0-77.259c7.525-1.638,13.175-0.63,18.225,6.556
		c11.752,16.719,24.593,32.673,37.548,49.664c0-19.16,0-37.575,0-56.373c4.371,0,8.24,0,12.398,0c0,25.826,0,51.548,0,77.384
		c-6.714,1.302-11.772,0.803-16.366-5.628C868.973,1105.833,855.679,1089.204,841.81,1071.072z"/>
	<path fill-rule="evenodd" clip-rule="evenodd" fill="#263333" d="M1587.688,942.473c0,26.057,0,51.653,0,77.225
		c-7.059,1.58-12.147,0.598-16.795-5.915c-12.352-17.31-25.654-33.94-39.086-51.504c0,19.497,0,38.299,0,57.548
		c-4.301,0-8.16,0-12.313,0c0-25.702,0-51.298,0-76.919c8.662-2.441,11.982-1.38,17.209,5.475
		c12.694,16.649,25.401,33.288,38.646,50.643c0-19.251,0-37.726,0-56.552C1579.668,942.473,1583.544,942.473,1587.688,942.473z"/>
	<path fill-rule="evenodd" clip-rule="evenodd" fill="#263333" d="M1153.69,1129.227c0-26.496,0-52.086,0-78.251
		c13.033,0.412,25.859-1.365,38.424,2.234c16.018,4.589,25.706,17.573,25.86,34.485c0.182,19.858-9.116,33.777-26.259,39.135
		C1179.35,1130.696,1166.671,1128.932,1153.69,1129.227z M1166.188,1117.961c13.355,3.08,27.754-1.5,33.888-10.662
		c6.468-9.66,6.435-25.306-0.073-34.549c-6.424-9.125-21.063-13.495-33.814-10.066
		C1166.188,1081.118,1166.188,1099.564,1166.188,1117.961z"/>
	<path fill-rule="evenodd" clip-rule="evenodd" fill="#263333" d="M1195.121,1019.944c0-25.955,0-51.542,0-77.479
		c3.83,0,7.563,0,11.8,0c0,10.608,0,21.193,0,32.212c13.506,0,26.522,0,40.027,0c0-10.686,0-21.278,0-32.212
		c4.201,0,7.927,0,12.043,0c0,25.76,0,51.453,0,77.481c-3.869,0-7.468,0-11.74,0c0-11.044,0-22.101,0-33.534
		c-13.554,0-26.441,0-40.013,0c0,11.108,0,22.16,0,33.532C1202.977,1019.944,1199.383,1019.944,1195.121,1019.944z"/>
	<path fill-rule="evenodd" clip-rule="evenodd" fill="#263333" d="M1659.398,981.616c4.407,0,8.152,0,12.563,0
		c0,10.525,0.058,20.948-0.097,31.369c-0.015,0.971-1.175,2.392-2.146,2.811c-13.346,5.765-27.096,8.251-41.254,3.466
		c-13.938-4.711-21.817-15.003-24.098-29.215c-4.714-29.393,17.086-51.848,46.673-48.393c4.274,0.499,8.475,1.604,12.735,2.259
		c4.258,0.654,5.867,2.95,5.246,7.185c-0.285,1.941-0.049,3.96-0.049,5.948c-5.477-1.582-10.609-3.646-15.934-4.484
		c-11.818-1.864-22.972,0.034-30.401,10.391c-7.417,10.338-7.376,21.914-2.159,33.216c5.848,12.67,23.825,19.045,36.412,13.139
		c1.273-0.598,2.342-2.994,2.396-4.594C1659.538,997.24,1659.398,989.754,1659.398,981.616z"/>
	<path fill-rule="evenodd" clip-rule="evenodd" fill="#263333" d="M1341.289,1020.25c-3.979,0-7.46,0.262-10.862-0.139
		c-1.222-0.144-2.72-1.67-3.29-2.928c-1.921-4.233-3.592-8.591-5.136-12.979c-0.894-2.539-2.218-3.657-5.067-3.58
		c-7.322,0.198-14.657,0.212-21.979-0.005c-2.918-0.087-4.189,1.092-4.934,3.672c-0.689,2.389-1.673,4.694-2.552,7.026
		c-3.726,9.878-3.729,9.876-15.152,8.509c0.404-1.397,0.691-2.761,1.186-4.045c8.954-23.271,17.979-46.515,26.848-69.818
		c1.102-2.895,2.472-4.205,5.732-4.082c3.069,0.115,4.976,0.451,6.304,3.901c9.021,23.424,18.359,46.725,27.574,70.074
		C1340.433,1017.052,1340.712,1018.321,1341.289,1020.25z M1316.304,989.944c-3.291-9.649-6.462-18.944-10.062-29.498
		c-3.797,10.448-7.18,19.759-10.719,29.498C1302.666,989.944,1308.944,989.944,1316.304,989.944z"/>
	<path fill-rule="evenodd" clip-rule="evenodd" fill="#263333" d="M1284.899,1129.285c7.146-18.53,13.956-36.197,20.773-53.861
		c2.755-7.138,5.687-14.213,8.209-21.432c0.99-2.834,2.639-3.446,5.24-3.302c2.451,0.137,4.757-0.353,6.026,2.917
		c9.508,24.492,19.202,48.913,28.821,73.361c0.175,0.444,0.149,0.967,0.325,2.233c-3.878,0-7.61,0.172-11.306-0.12
		c-0.928-0.073-2.078-1.481-2.541-2.534c-1.607-3.647-3.359-7.31-4.305-11.15c-1.297-5.267-4.346-6.596-9.394-6.209
		c-5.632,0.431-11.333,0.313-16.982,0.019c-3.728-0.195-5.876,0.855-6.86,4.654c-0.872,3.362-2.739,6.481-3.484,9.859
		c-1.035,4.695-3.615,6.275-8.163,5.607C1289.482,1129.066,1287.634,1129.285,1284.899,1129.285z M1329.45,1098.69
		c-3.322-9.732-6.486-19.003-10.033-29.396c-3.789,10.406-7.188,19.742-10.701,29.396
		C1316.004,1098.69,1322.4,1098.69,1329.45,1098.69z"/>
	<path fill-rule="evenodd" clip-rule="evenodd" fill="#263333" d="M1732.05,1009.896c0,3.84,0,6.773,0,10.042
		c-13.878,0-27.438,0-41.322,0c0-25.831,0-51.41,0-77.407c13.521,0,27.08,0,41.287,0c-0.977,2.85-1.693,5.858-3.079,8.518
		c-0.532,1.021-2.58,1.721-3.957,1.754c-7.123,0.171-14.253,0.079-21.69,0.079c0,7.479,0,14.54,0,22.122c8.161,0,16.238,0,24.693,0
		c0,3.734,0,6.967,0,10.694c-8.094,0-16.185,0-24.637,0c0,8.194,0,15.903,0,24.198
		C1712.843,1009.896,1722.247,1009.896,1732.05,1009.896z"/>
	<path fill-rule="evenodd" clip-rule="evenodd" fill="#263333" d="M1178.058,956.841c-20.392-7.521-33.279-5.654-41.745,5.787
		c-7.648,10.339-7.516,27.667,0.293,38.028c8.157,10.823,20.463,12.528,40.092,5.294c1.135,2.808,2.278,5.636,3.598,8.898
		c-13.901,7.675-27.939,9.488-42.308,3.047c-13.51-6.058-19.67-17.567-20.706-31.79c-2.402-32.974,25.987-51.419,56.347-42.533
		c4.407,1.29,5.979,3.567,5.004,7.941C1178.276,953.11,1178.268,954.783,1178.058,956.841z"/>
	<path fill-rule="evenodd" clip-rule="evenodd" fill="#263333" d="M918.222,942.389c13.636,0,27.078,0,41.155,0
		c-1.021,3.039-1.724,6.072-3.104,8.757c-0.515,0.999-2.605,1.631-3.995,1.663c-7.139,0.162-14.284,0.074-21.795,0.074
		c0,7.441,0,14.495,0,22.163c8.321,0,16.545,0,25.019,0c0,3.846,0,7.082,0,10.742c-8.378,0-16.485,0-24.99,0
		c0,8.119,0,15.82,0,24.025c9.624,0,19.06,0,28.877,0c0,3.543,0,6.593,0,10.061c-13.643,0-27.197,0-41.167,0
		C918.222,994.065,918.222,968.363,918.222,942.389z"/>
	<path fill-rule="evenodd" clip-rule="evenodd" fill="#263333" d="M1461.204,942.394c13.628,0,27.058,0,41.12,0
		c-1.191,3.565-2.319,6.938-3.547,10.609c-8.495,0-16.771,0-25.354,0c0,7.451,0,14.501,0,21.968c8.37,0,16.475,0,24.966,0
		c0,3.639,0,6.871,0,10.723c-8.117,0-16.343,0-24.917,0c0,8.172,0,15.752,0,24.008c9.485,0,19.036,0,28.941,0
		c0,3.717,0,6.768,0,10.203c-13.71,0-27.259,0-41.21,0C1461.204,994.053,1461.204,968.363,1461.204,942.394z"/>
	<path fill-rule="evenodd" clip-rule="evenodd" fill="#263333" d="M959.523,1118.566c0,3.857,0,6.792,0,10.225
		c-13.625,0-27.17,0-41.218,0c0-25.543,0-51.248,0-77.383c13.388,0,26.93,0,41.021,0c-1.002,2.962-1.665,5.895-3.025,8.457
		c-0.545,1.026-2.612,1.71-4.006,1.744c-7.138,0.171-14.282,0.078-21.803,0.078c0,7.467,0,14.516,0,22.247
		c8.356,0,16.573,0,24.205,0c0.669,0.806,0.854,0.924,0.869,1.061c1.072,9.696,1.071,9.696-8.496,9.697c-5.449,0-10.898,0-16.65,0
		c0,8.16,0,15.723,0,23.874C940.073,1118.566,949.503,1118.566,959.523,1118.566z"/>
	<path fill-rule="evenodd" clip-rule="evenodd" fill="#263333" d="M1271.508,1094.727c-8.58,0-16.669,0-25.071,0
		c0,8.085,0,15.649,0,23.968c9.71,0,19.264,0,29.065,0c0,3.678,0,6.611,0,10.071c-13.684,0-27.341,0-41.349,0
		c0-25.82,0-51.516,0-77.497c13.728,0,27.149,0,41.186,0c-1.043,3.055-1.718,5.976-3.073,8.536
		c-0.548,1.033-2.571,1.767-3.944,1.801c-7.139,0.176-14.285,0.082-21.818,0.082c0,7.441,0,14.49,0,22.22c8.321,0,16.534,0,25.005,0
		C1271.508,1087.67,1271.508,1090.762,1271.508,1094.727z"/>
	<path fill-rule="evenodd" clip-rule="evenodd" fill="#263333" d="M1790.141,955.585c-6.363-1.286-12.274-2.964-18.29-3.541
		c-4.588-0.439-9.031,1.12-10.94,6.125c-1.58,4.142,0.068,8.616,4.993,11.95c5.916,4.004,12.331,7.269,18.248,11.269
		c7.977,5.393,11.83,12.847,9.98,22.709c-1.16,6.182-4.826,10.511-10.07,13.584c-10.854,6.363-28.515,5.035-39.19-3.161
		c1.537-2.754,3.121-5.59,4.867-8.716c1.522,0.774,2.757,1.642,4.127,2.054c4.11,1.234,8.216,2.866,12.428,3.288
		c7.237,0.724,13.106-2.528,14.598-7.175c1.581-4.928-1.085-9.896-7.867-14.136c-4.23-2.644-8.725-4.87-12.931-7.55
		c-10.732-6.837-14.7-15.828-11.725-26.065c2.654-9.132,12.105-15.058,24.11-14.854c3.304,0.056,6.657,0.501,9.882,1.235
		C1791.331,944.646,1792.552,947.006,1790.141,955.585z"/>
	<path fill-rule="evenodd" clip-rule="evenodd" fill="#263333" d="M1408.976,1065.199c-5.18-1.495-10.017-3.14-14.978-4.213
		c-2.359-0.51-5.031-0.29-7.43,0.22c-8.012,1.7-10.532,9.63-4.844,15.563c2.258,2.355,5.233,4.074,8.032,5.847
		c4.354,2.758,9.006,5.07,13.226,8.01c7.423,5.172,11.206,12.346,9.641,21.497c-1.615,9.444-8.004,14.586-16.861,17.062
		c-10.841,3.031-23.87,0.776-32.604-5.784c1.553-2.788,3.133-5.623,4.231-7.596c6.875,1.534,13.029,3.436,19.312,4.081
		c2.982,0.306,6.573-1.212,9.247-2.912c4.567-2.904,5.031-9.335,0.929-13.536c-2.852-2.92-6.512-5.095-9.96-7.378
		c-4.017-2.66-8.386-4.816-12.264-7.654c-7.655-5.603-10.328-13.458-8.123-22.499c2.109-8.649,8.382-13.872,16.991-14.723
		c6.629-0.654,13.47,0.428,20.176,1.125c3.986,0.415,6.098,2.781,5.333,7.187C1408.701,1061.396,1408.976,1063.4,1408.976,1065.199z
		"/>
	<path fill-rule="evenodd" clip-rule="evenodd" fill="#263333" d="M1419.798,1009.888c9.632,0,18.717,0,28.18,0
		c0,3.579,0,6.618,0,10.029c-13.432,0-26.663,0-40.235,0c0-25.91,0-51.626,0-77.538c4.006,0,7.749,0,12.056,0
		C1419.798,964.873,1419.798,987.111,1419.798,1009.888z"/>
	<path fill-rule="evenodd" clip-rule="evenodd" fill="#263333" d="M1394.825,1009.818c0,3.943,0,6.884,0,10.139
		c-13.514,0-26.75,0-40.37,0c0-25.794,0-51.492,0-77.517c3.737,0,7.462,0,11.827,0c0,22.317,0,44.522,0,67.378
		C1376.094,1009.818,1385.298,1009.818,1394.825,1009.818z"/>
	<path fill-rule="evenodd" clip-rule="evenodd" fill="#263333" d="M1133.371,1128.998c-4.079,0-7.837,0-11.879,0
		c0-25.999,0-51.714,0-77.723c3.945,0,7.706,0,11.879,0C1133.371,1077,1133.371,1102.689,1133.371,1128.998z"/>
	<path fill-rule="evenodd" clip-rule="evenodd" fill="#263333" d="M1820.405,1006.839c1.773,10.152-0.184,18.911-6.238,26.617
		c-3.289,4.186-5.676-0.456-7.383-0.745c0.767-7.223,1.364-14.069,2.325-20.865c0.188-1.324,1.563-3.111,2.784-3.527
		C1814.477,1007.438,1817.32,1007.322,1820.405,1006.839z"/>
</g>
</svg>
